<svg xmlns="http://www.w3.org/2000/svg" width="32" height="32" version="1.0"><path d="M411.421 938.012a91.062 91.062 0 1 1-182.124 0 91.062 91.062 0 1 1 182.124 0z" style="fill:#000;fill-opacity:1;stroke:none;stroke-width:1;stroke-linecap:butt;stroke-linejoin:miter;stroke-miterlimit:4;stroke-dasharray:none;stroke-dashoffset:0;stroke-opacity:1" transform="translate(-40.289 -148.813)scale(.1757)"/><path d="M217.952 911.141a38.515 38.515 0 1 1-77.03 0 38.515 38.515 0 1 1 77.03 0z" style="fill:#fff;fill-opacity:1;stroke:none;stroke-width:1;stroke-linecap:butt;stroke-linejoin:miter;stroke-miterlimit:4;stroke-dasharray:none;stroke-dashoffset:0;stroke-opacity:1" transform="translate(-15.213 -149.442)scale(.1757)"/><path d="M74.227 890.493c-2.625-.96-4.57-2.332-5.836-4.113-1.266-1.781-1.899-3.914-1.899-6.398 0-3.75 1.348-6.903 4.043-9.457 2.695-2.555 6.281-3.832 10.758-3.832 4.5 0 8.121 1.306 10.863 3.92 2.742 2.613 4.113 5.794 4.114 9.544 0 2.391-.627 4.471-1.881 6.24-1.254 1.77-3.159 3.135-5.713 4.096 3.164 1.032 5.572 2.696 7.224 4.993 1.653 2.296 2.479 5.039 2.479 8.226 0 4.406-1.559 8.11-4.676 11.11s-7.219 4.5-12.305 4.5c-5.086 0-9.187-1.506-12.304-4.518-3.117-3.012-4.676-6.768-4.676-11.268 0-3.351.85-6.158 2.549-8.42 1.699-2.261 4.119-3.802 7.26-4.623zm-1.266-10.722c0 2.437.785 4.43 2.355 5.976 1.57 1.547 3.61 2.32 6.118 2.32 2.437 0 4.435-.767 5.994-2.302 1.558-1.535 2.338-3.416 2.338-5.643 0-2.32-.803-4.271-2.409-5.853-1.605-1.582-3.603-2.373-5.994-2.373-2.414 0-4.418.773-6.011 2.32-1.594 1.547-2.391 3.398-2.391 5.555zm-2.04 23.8c0 1.805.429 3.551 1.284 5.239.856 1.687 2.127 2.994 3.815 3.92a11.15 11.15 0 0 0 5.449 1.388c3.023 0 5.52-.972 7.488-2.918 1.969-1.945 2.953-4.418 2.953-7.418 0-3.046-1.014-5.566-3.04-7.558-2.028-1.992-4.565-2.988-7.612-2.988-2.977 0-5.444.984-7.4 2.953-1.958 1.968-2.936 4.43-2.936 7.382z" style="font-size:72px" transform="rotate(8.035 1059.647 96.99)scale(.1757)"/></svg>