<svg xmlns="http://www.w3.org/2000/svg" xmlns:xlink="http://www.w3.org/1999/xlink" width="1366" zoomAndPan="magnify" viewBox="0 0 1024.5 576" height="768" preserveAspectRatio="xMidYMid meet" version="1.0"><defs><g/></defs><g fill="#2a2e30" fill-opacity="0.4"><g transform="translate(44.088899, 155.801327)"><g><path d="M 72.839844 -16.863281 C 72.839844 -4.1875 70.328125 -0.835938 65.183594 -1.078125 L 65.183594 0 L 91.855469 0 L 91.855469 -1.078125 C 86.710938 -0.835938 84.199219 -4.1875 84.199219 -16.863281 L 84.199219 -64.824219 C 84.199219 -77.503906 86.710938 -80.972656 91.855469 -80.730469 L 91.855469 -81.808594 L 72.839844 -81.808594 L 45.210938 -2.988281 L 17.820312 -81.808594 L 0 -81.808594 L 0 -80.730469 C 5.144531 -80.972656 7.65625 -77.503906 7.65625 -64.824219 L 7.65625 -16.863281 C 7.65625 -4.1875 5.144531 -0.835938 0 -1.078125 L 0 0 L 17.460938 0 L 17.460938 -1.078125 C 12.320312 -0.835938 9.808594 -4.1875 9.808594 -16.863281 L 9.808594 -70.085938 L 34.207031 0 L 46.40625 0 L 72.839844 -75.347656 Z M 72.839844 -16.863281 "/></g></g></g><g fill="#2a2e30" fill-opacity="0.4"><g transform="translate(139.411272, 155.801327)"><g><path d="M 68.054688 -4.902344 L 67.214844 -5.621094 C 64.347656 -3.230469 60.996094 -5.859375 59.5625 -8.132812 C 54.417969 -15.789062 53.222656 -29.660156 50.59375 -41.859375 C 47.363281 -57.648438 43.058594 -64.945312 25.355469 -64.945312 C 16.144531 -64.945312 7.175781 -62.910156 0.121094 -59.5625 L 3.945312 -49.515625 C 6.578125 -53.101562 12.199219 -58.726562 17.820312 -61.238281 C 26.789062 -65.304688 34.804688 -60.039062 29.660156 -49.992188 C 23.800781 -38.152344 1.078125 -34.804688 0 -16.984375 C -0.597656 -5.859375 7.414062 0 17.820312 0 C 34.804688 0 40.902344 -13.394531 41.980469 -27.628906 C 42.9375 -22.007812 44.132812 -16.503906 45.808594 -11.839844 C 48.199219 -5.382812 51.667969 0 59.441406 0 C 62.910156 0 66.261719 -1.433594 68.054688 -4.902344 Z M 38.871094 -45.210938 C 40.785156 -37.316406 40.425781 -26.3125 37.675781 -18.539062 C 35.042969 -11.003906 27.628906 -3.828125 18.777344 -5.980469 C 11.960938 -7.65625 10.046875 -13.875 11.242188 -19.734375 C 13.753906 -31.214844 26.671875 -35.402344 31.8125 -44.613281 C 33.726562 -47.960938 34.804688 -52.746094 33.847656 -56.691406 C 36.238281 -53.582031 37.792969 -49.515625 38.871094 -45.210938 Z M 38.871094 -45.210938 "/></g></g></g><g fill="#2a2e30" fill-opacity="0.4"><g transform="translate(210.215345, 155.801327)"><g><path d="M 25.59375 -64.945312 C 11.480469 -64.945312 0.121094 -53.582031 0.121094 -39.46875 C 0.121094 -32.054688 3.347656 -25.355469 8.371094 -20.691406 C 4.1875 -18.65625 0.597656 -15.546875 0.121094 -10.40625 C -0.835938 -0.835938 8.851562 2.75 16.863281 2.632812 C 27.507812 2.273438 39.347656 -4.664062 49.15625 -7.65625 C 66.738281 -13.035156 71.640625 -1.675781 59.800781 6.101562 C 48.679688 13.394531 15.429688 19.257812 2.511719 8.253906 C 0.597656 6.699219 -2.152344 3.828125 0.121094 1.433594 L -0.359375 0.71875 C -4.304688 3.347656 -4.902344 9.328125 -3.109375 13.394531 C 0.835938 22.367188 16.144531 24.757812 24.636719 24.757812 C 37.792969 24.757812 59.324219 21.886719 66.617188 9.210938 C 73.914062 -3.230469 64.226562 -19.257812 46.285156 -16.265625 C 30.859375 -13.753906 10.046875 -1.914062 4.1875 -9.328125 C 2.390625 -11.601562 3.46875 -14.949219 6.699219 -17.222656 C 7.65625 -17.941406 8.851562 -18.539062 10.167969 -19.136719 C 14.472656 -15.90625 19.855469 -13.992188 25.59375 -13.992188 C 39.707031 -13.992188 51.070312 -25.355469 51.070312 -39.46875 C 51.070312 -47.601562 47.242188 -54.898438 41.261719 -59.5625 C 49.15625 -63.75 55.972656 -56.214844 60.519531 -49.636719 L 64.347656 -59.5625 C 60.636719 -62.671875 55.855469 -64.945312 50.949219 -64.945312 C 46.644531 -64.945312 42.816406 -63.390625 39.347656 -60.996094 C 35.402344 -63.507812 30.617188 -64.945312 25.59375 -64.945312 Z M 17.941406 -61.476562 C 25.59375 -64.226562 35.28125 -56.453125 39.589844 -44.371094 C 43.773438 -32.171875 41.023438 -20.09375 33.25 -17.460938 C 25.59375 -14.710938 15.90625 -22.367188 11.722656 -34.566406 C 7.414062 -46.765625 10.167969 -58.84375 17.941406 -61.476562 Z M 17.941406 -61.476562 "/></g></g></g><g fill="#2a2e30" fill-opacity="0.4"><g transform="translate(282.335042, 155.801327)"><g><path d="M 18.417969 -16.863281 L 18.417969 -64.945312 C 15.191406 -60.28125 7.054688 -57.050781 0 -57.050781 L 0 -55.972656 C 5.144531 -56.214844 7.65625 -52.746094 7.65625 -40.066406 L 7.65625 -16.863281 C 7.65625 -4.1875 5.144531 -0.835938 0 -1.078125 L 0 0 L 26.074219 0 L 26.074219 -1.078125 C 20.929688 -0.835938 18.417969 -4.1875 18.417969 -16.863281 Z M 13.035156 -81.808594 C 8.730469 -81.808594 5.144531 -78.339844 5.144531 -74.035156 C 5.144531 -69.609375 8.730469 -66.140625 13.035156 -66.140625 C 17.34375 -66.140625 20.929688 -69.609375 20.929688 -74.035156 C 20.929688 -78.339844 17.34375 -81.808594 13.035156 -81.808594 Z M 13.035156 -81.808594 "/></g></g></g><g fill="#2a2e30" fill-opacity="0.4"><g transform="translate(311.398202, 155.801327)"><g><path d="M 56.570312 -59.5625 C 49.515625 -63.148438 42.101562 -64.945312 34.925781 -64.945312 C 17.222656 -64.945312 1.792969 -50.351562 1.792969 -32.414062 C 1.792969 -22.484375 6.339844 -13.515625 13.394531 -7.65625 C 19.015625 -2.871094 26.3125 0 34.207031 0 C 49.515625 0 62.191406 -10.523438 65.78125 -24.636719 L 64.703125 -24.636719 C 60.636719 -12.917969 51.546875 -5.980469 41.980469 -4.902344 C 26.671875 -3.230469 15.667969 -16.027344 12.4375 -29.660156 C 9.089844 -43.894531 13.875 -57.410156 24.160156 -60.996094 C 34.324219 -64.585938 43.535156 -60.636719 52.503906 -49.992188 Z M 56.570312 -59.5625 "/></g></g></g><g fill="#2a2e30" fill-opacity="1"><g transform="translate(38.803068, 150.515494)"><g><path d="M 72.839844 -16.863281 C 72.839844 -4.1875 70.328125 -0.835938 65.183594 -1.078125 L 65.183594 0 L 91.855469 0 L 91.855469 -1.078125 C 86.710938 -0.835938 84.199219 -4.1875 84.199219 -16.863281 L 84.199219 -64.824219 C 84.199219 -77.503906 86.710938 -80.972656 91.855469 -80.730469 L 91.855469 -81.808594 L 72.839844 -81.808594 L 45.210938 -2.988281 L 17.820312 -81.808594 L 0 -81.808594 L 0 -80.730469 C 5.144531 -80.972656 7.65625 -77.503906 7.65625 -64.824219 L 7.65625 -16.863281 C 7.65625 -4.1875 5.144531 -0.835938 0 -1.078125 L 0 0 L 17.460938 0 L 17.460938 -1.078125 C 12.320312 -0.835938 9.808594 -4.1875 9.808594 -16.863281 L 9.808594 -70.085938 L 34.207031 0 L 46.40625 0 L 72.839844 -75.347656 Z M 72.839844 -16.863281 "/></g></g></g><g fill="#2a2e30" fill-opacity="1"><g transform="translate(134.125441, 150.515494)"><g><path d="M 68.054688 -4.902344 L 67.214844 -5.621094 C 64.347656 -3.230469 60.996094 -5.859375 59.5625 -8.132812 C 54.417969 -15.789062 53.222656 -29.660156 50.59375 -41.859375 C 47.363281 -57.648438 43.058594 -64.945312 25.355469 -64.945312 C 16.144531 -64.945312 7.175781 -62.910156 0.121094 -59.5625 L 3.945312 -49.515625 C 6.578125 -53.101562 12.199219 -58.726562 17.820312 -61.238281 C 26.789062 -65.304688 34.804688 -60.039062 29.660156 -49.992188 C 23.800781 -38.152344 1.078125 -34.804688 0 -16.984375 C -0.597656 -5.859375 7.414062 0 17.820312 0 C 34.804688 0 40.902344 -13.394531 41.980469 -27.628906 C 42.9375 -22.007812 44.132812 -16.503906 45.808594 -11.839844 C 48.199219 -5.382812 51.667969 0 59.441406 0 C 62.910156 0 66.261719 -1.433594 68.054688 -4.902344 Z M 38.871094 -45.210938 C 40.785156 -37.316406 40.425781 -26.3125 37.675781 -18.539062 C 35.042969 -11.003906 27.628906 -3.828125 18.777344 -5.980469 C 11.960938 -7.65625 10.046875 -13.875 11.242188 -19.734375 C 13.753906 -31.214844 26.671875 -35.402344 31.8125 -44.613281 C 33.726562 -47.960938 34.804688 -52.746094 33.847656 -56.691406 C 36.238281 -53.582031 37.792969 -49.515625 38.871094 -45.210938 Z M 38.871094 -45.210938 "/></g></g></g><g fill="#2a2e30" fill-opacity="1"><g transform="translate(204.929513, 150.515494)"><g><path d="M 25.59375 -64.945312 C 11.480469 -64.945312 0.121094 -53.582031 0.121094 -39.46875 C 0.121094 -32.054688 3.347656 -25.355469 8.371094 -20.691406 C 4.1875 -18.65625 0.597656 -15.546875 0.121094 -10.40625 C -0.835938 -0.835938 8.851562 2.75 16.863281 2.632812 C 27.507812 2.273438 39.347656 -4.664062 49.15625 -7.65625 C 66.738281 -13.035156 71.640625 -1.675781 59.800781 6.101562 C 48.679688 13.394531 15.429688 19.257812 2.511719 8.253906 C 0.597656 6.699219 -2.152344 3.828125 0.121094 1.433594 L -0.359375 0.71875 C -4.304688 3.347656 -4.902344 9.328125 -3.109375 13.394531 C 0.835938 22.367188 16.144531 24.757812 24.636719 24.757812 C 37.792969 24.757812 59.324219 21.886719 66.617188 9.210938 C 73.914062 -3.230469 64.226562 -19.257812 46.285156 -16.265625 C 30.859375 -13.753906 10.046875 -1.914062 4.1875 -9.328125 C 2.390625 -11.601562 3.46875 -14.949219 6.699219 -17.222656 C 7.65625 -17.941406 8.851562 -18.539062 10.167969 -19.136719 C 14.472656 -15.90625 19.855469 -13.992188 25.59375 -13.992188 C 39.707031 -13.992188 51.070312 -25.355469 51.070312 -39.46875 C 51.070312 -47.601562 47.242188 -54.898438 41.261719 -59.5625 C 49.15625 -63.75 55.972656 -56.214844 60.519531 -49.636719 L 64.347656 -59.5625 C 60.636719 -62.671875 55.855469 -64.945312 50.949219 -64.945312 C 46.644531 -64.945312 42.816406 -63.390625 39.347656 -60.996094 C 35.402344 -63.507812 30.617188 -64.945312 25.59375 -64.945312 Z M 17.941406 -61.476562 C 25.59375 -64.226562 35.28125 -56.453125 39.589844 -44.371094 C 43.773438 -32.171875 41.023438 -20.09375 33.25 -17.460938 C 25.59375 -14.710938 15.90625 -22.367188 11.722656 -34.566406 C 7.414062 -46.765625 10.167969 -58.84375 17.941406 -61.476562 Z M 17.941406 -61.476562 "/></g></g></g><g fill="#2a2e30" fill-opacity="1"><g transform="translate(277.04921, 150.515494)"><g><path d="M 18.417969 -16.863281 L 18.417969 -64.945312 C 15.191406 -60.28125 7.054688 -57.050781 0 -57.050781 L 0 -55.972656 C 5.144531 -56.214844 7.65625 -52.746094 7.65625 -40.066406 L 7.65625 -16.863281 C 7.65625 -4.1875 5.144531 -0.835938 0 -1.078125 L 0 0 L 26.074219 0 L 26.074219 -1.078125 C 20.929688 -0.835938 18.417969 -4.1875 18.417969 -16.863281 Z M 13.035156 -81.808594 C 8.730469 -81.808594 5.144531 -78.339844 5.144531 -74.035156 C 5.144531 -69.609375 8.730469 -66.140625 13.035156 -66.140625 C 17.34375 -66.140625 20.929688 -69.609375 20.929688 -74.035156 C 20.929688 -78.339844 17.34375 -81.808594 13.035156 -81.808594 Z M 13.035156 -81.808594 "/></g></g></g><g fill="#2a2e30" fill-opacity="1"><g transform="translate(306.11237, 150.515494)"><g><path d="M 56.570312 -59.5625 C 49.515625 -63.148438 42.101562 -64.945312 34.925781 -64.945312 C 17.222656 -64.945312 1.792969 -50.351562 1.792969 -32.414062 C 1.792969 -22.484375 6.339844 -13.515625 13.394531 -7.65625 C 19.015625 -2.871094 26.3125 0 34.207031 0 C 49.515625 0 62.191406 -10.523438 65.78125 -24.636719 L 64.703125 -24.636719 C 60.636719 -12.917969 51.546875 -5.980469 41.980469 -4.902344 C 26.671875 -3.230469 15.667969 -16.027344 12.4375 -29.660156 C 9.089844 -43.894531 13.875 -57.410156 24.160156 -60.996094 C 34.324219 -64.585938 43.535156 -60.636719 52.503906 -49.992188 Z M 56.570312 -59.5625 "/></g></g></g><g fill="#2a2e30" fill-opacity="0.4"><g transform="translate(381.131832, 155.801327)"><g/></g></g><g fill="#2a2e30" fill-opacity="1"><g transform="translate(375.846001, 150.515494)"><g/></g></g><g fill="#2a2e30" fill-opacity="0.4"><g transform="translate(44.088899, 323.051307)"><g><path d="M 0 0 L 63.390625 0 L 70.207031 -21.527344 L 69.25 -21.527344 C 64.824219 -10.523438 51.789062 -2.152344 40.066406 -2.152344 L 19.015625 -2.152344 L 19.015625 -34.804688 C 23.5625 -41.144531 29.902344 -37.914062 35.761719 -36 C 46.285156 -32.414062 53.460938 -35.042969 57.527344 -46.882812 L 56.570312 -47.363281 C 52.027344 -40.425781 45.449219 -43.773438 39.589844 -45.808594 C 30.019531 -49.035156 23.203125 -47.242188 19.015625 -38.152344 L 19.015625 -79.65625 L 40.785156 -79.65625 C 50.472656 -79.65625 61.835938 -72.957031 65.542969 -63.75 L 66.617188 -63.75 L 61.59375 -81.808594 L 0 -81.808594 L 0 -80.730469 C 5.144531 -80.972656 7.65625 -77.503906 7.65625 -64.824219 L 7.65625 -16.863281 C 7.65625 -4.1875 5.144531 -0.835938 0 -1.078125 Z M 0 0 "/></g></g></g><g fill="#2a2e30" fill-opacity="0.4"><g transform="translate(117.643811, 323.051307)"><g><path d="M 18.417969 -16.863281 L 18.417969 -64.945312 C 15.191406 -60.28125 7.054688 -57.050781 0 -57.050781 L 0 -55.972656 C 5.144531 -56.214844 7.65625 -52.746094 7.65625 -40.066406 L 7.65625 -16.863281 C 7.65625 -4.1875 5.144531 -0.835938 0 -1.078125 L 0 0 L 26.074219 0 L 26.074219 -1.078125 C 20.929688 -0.835938 18.417969 -4.1875 18.417969 -16.863281 Z M 13.035156 -81.808594 C 8.730469 -81.808594 5.144531 -78.339844 5.144531 -74.035156 C 5.144531 -69.609375 8.730469 -66.140625 13.035156 -66.140625 C 17.34375 -66.140625 20.929688 -69.609375 20.929688 -74.035156 C 20.929688 -78.339844 17.34375 -81.808594 13.035156 -81.808594 Z M 13.035156 -81.808594 "/></g></g></g><g fill="#2a2e30" fill-opacity="0.4"><g transform="translate(146.706971, 323.051307)"><g><path d="M 25.59375 -64.945312 C 11.480469 -64.945312 0.121094 -53.582031 0.121094 -39.46875 C 0.121094 -32.054688 3.347656 -25.355469 8.371094 -20.691406 C 4.1875 -18.65625 0.597656 -15.546875 0.121094 -10.40625 C -0.835938 -0.835938 8.851562 2.75 16.863281 2.632812 C 27.507812 2.273438 39.347656 -4.664062 49.15625 -7.65625 C 66.738281 -13.035156 71.640625 -1.675781 59.800781 6.101562 C 48.679688 13.394531 15.429688 19.257812 2.511719 8.253906 C 0.597656 6.699219 -2.152344 3.828125 0.121094 1.433594 L -0.359375 0.71875 C -4.304688 3.347656 -4.902344 9.328125 -3.109375 13.394531 C 0.835938 22.367188 16.144531 24.757812 24.636719 24.757812 C 37.792969 24.757812 59.324219 21.886719 66.617188 9.210938 C 73.914062 -3.230469 64.226562 -19.257812 46.285156 -16.265625 C 30.859375 -13.753906 10.046875 -1.914062 4.1875 -9.328125 C 2.390625 -11.601562 3.46875 -14.949219 6.699219 -17.222656 C 7.65625 -17.941406 8.851562 -18.539062 10.167969 -19.136719 C 14.472656 -15.90625 19.855469 -13.992188 25.59375 -13.992188 C 39.707031 -13.992188 51.070312 -25.355469 51.070312 -39.46875 C 51.070312 -47.601562 47.242188 -54.898438 41.261719 -59.5625 C 49.15625 -63.75 55.972656 -56.214844 60.519531 -49.636719 L 64.347656 -59.5625 C 60.636719 -62.671875 55.855469 -64.945312 50.949219 -64.945312 C 46.644531 -64.945312 42.816406 -63.390625 39.347656 -60.996094 C 35.402344 -63.507812 30.617188 -64.945312 25.59375 -64.945312 Z M 17.941406 -61.476562 C 25.59375 -64.226562 35.28125 -56.453125 39.589844 -44.371094 C 43.773438 -32.171875 41.023438 -20.09375 33.25 -17.460938 C 25.59375 -14.710938 15.90625 -22.367188 11.722656 -34.566406 C 7.414062 -46.765625 10.167969 -58.84375 17.941406 -61.476562 Z M 17.941406 -61.476562 "/></g></g></g><g fill="#2a2e30" fill-opacity="0.4"><g transform="translate(218.826657, 323.051307)"><g><path d="M 74.632812 -4.902344 L 73.792969 -5.621094 C 70.804688 -3.230469 67.574219 -5.859375 66.019531 -8.132812 C 60.878906 -15.789062 59.683594 -29.660156 57.050781 -41.859375 C 55.136719 -51.546875 52.984375 -64.945312 40.066406 -64.945312 C 30.738281 -64.945312 23.800781 -57.769531 18.417969 -50.59375 L 18.417969 -89.703125 C 15.191406 -85.039062 7.054688 -81.808594 0 -81.808594 L 0 -80.730469 C 5.144531 -80.972656 7.65625 -77.621094 7.65625 -64.945312 L 7.65625 -16.863281 C 7.65625 -4.1875 5.144531 -0.835938 0 -1.078125 L 0 0 L 26.074219 0 L 26.074219 -1.078125 C 20.929688 -0.835938 18.417969 -4.1875 18.417969 -16.863281 L 18.417969 -46.765625 C 19.972656 -49.035156 22.007812 -51.546875 24.28125 -53.703125 C 32.890625 -62.191406 40.785156 -61.953125 44.371094 -49.277344 C 47.480469 -38.511719 48.199219 -22.722656 52.265625 -11.839844 C 54.660156 -5.382812 58.246094 0 65.902344 0 C 69.371094 0 72.839844 -1.433594 74.632812 -4.902344 Z M 74.632812 -4.902344 "/></g></g></g><g fill="#2a2e30" fill-opacity="0.4"><g transform="translate(296.208804, 323.051307)"><g><path d="M 0 -64.945312 L 0 -62.792969 L 7.65625 -62.792969 L 7.65625 -14.710938 C 7.65625 -7.535156 10.523438 0 18.898438 0 C 25.476562 0 29.78125 -5.144531 33.367188 -10.167969 L 32.53125 -10.882812 C 25.714844 -2.871094 18.417969 -2.75 18.417969 -14.710938 L 18.417969 -62.792969 L 33.367188 -62.792969 L 33.367188 -64.945312 L 18.417969 -64.945312 L 18.417969 -75.347656 L 17.34375 -75.347656 C 14.113281 -69.128906 6.101562 -64.945312 0 -64.945312 Z M 0 -64.945312 "/></g></g></g><g fill="#2a2e30" fill-opacity="1"><g transform="translate(38.803068, 317.765475)"><g><path d="M 0 0 L 63.390625 0 L 70.207031 -21.527344 L 69.25 -21.527344 C 64.824219 -10.523438 51.789062 -2.152344 40.066406 -2.152344 L 19.015625 -2.152344 L 19.015625 -34.804688 C 23.5625 -41.144531 29.902344 -37.914062 35.761719 -36 C 46.285156 -32.414062 53.460938 -35.042969 57.527344 -46.882812 L 56.570312 -47.363281 C 52.027344 -40.425781 45.449219 -43.773438 39.589844 -45.808594 C 30.019531 -49.035156 23.203125 -47.242188 19.015625 -38.152344 L 19.015625 -79.65625 L 40.785156 -79.65625 C 50.472656 -79.65625 61.835938 -72.957031 65.542969 -63.75 L 66.617188 -63.75 L 61.59375 -81.808594 L 0 -81.808594 L 0 -80.730469 C 5.144531 -80.972656 7.65625 -77.503906 7.65625 -64.824219 L 7.65625 -16.863281 C 7.65625 -4.1875 5.144531 -0.835938 0 -1.078125 Z M 0 0 "/></g></g></g><g fill="#2a2e30" fill-opacity="1"><g transform="translate(112.357979, 317.765475)"><g><path d="M 18.417969 -16.863281 L 18.417969 -64.945312 C 15.191406 -60.28125 7.054688 -57.050781 0 -57.050781 L 0 -55.972656 C 5.144531 -56.214844 7.65625 -52.746094 7.65625 -40.066406 L 7.65625 -16.863281 C 7.65625 -4.1875 5.144531 -0.835938 0 -1.078125 L 0 0 L 26.074219 0 L 26.074219 -1.078125 C 20.929688 -0.835938 18.417969 -4.1875 18.417969 -16.863281 Z M 13.035156 -81.808594 C 8.730469 -81.808594 5.144531 -78.339844 5.144531 -74.035156 C 5.144531 -69.609375 8.730469 -66.140625 13.035156 -66.140625 C 17.34375 -66.140625 20.929688 -69.609375 20.929688 -74.035156 C 20.929688 -78.339844 17.34375 -81.808594 13.035156 -81.808594 Z M 13.035156 -81.808594 "/></g></g></g><g fill="#2a2e30" fill-opacity="1"><g transform="translate(141.42114, 317.765475)"><g><path d="M 25.59375 -64.945312 C 11.480469 -64.945312 0.121094 -53.582031 0.121094 -39.46875 C 0.121094 -32.054688 3.347656 -25.355469 8.371094 -20.691406 C 4.1875 -18.65625 0.597656 -15.546875 0.121094 -10.40625 C -0.835938 -0.835938 8.851562 2.75 16.863281 2.632812 C 27.507812 2.273438 39.347656 -4.664062 49.15625 -7.65625 C 66.738281 -13.035156 71.640625 -1.675781 59.800781 6.101562 C 48.679688 13.394531 15.429688 19.257812 2.511719 8.253906 C 0.597656 6.699219 -2.152344 3.828125 0.121094 1.433594 L -0.359375 0.71875 C -4.304688 3.347656 -4.902344 9.328125 -3.109375 13.394531 C 0.835938 22.367188 16.144531 24.757812 24.636719 24.757812 C 37.792969 24.757812 59.324219 21.886719 66.617188 9.210938 C 73.914062 -3.230469 64.226562 -19.257812 46.285156 -16.265625 C 30.859375 -13.753906 10.046875 -1.914062 4.1875 -9.328125 C 2.390625 -11.601562 3.46875 -14.949219 6.699219 -17.222656 C 7.65625 -17.941406 8.851562 -18.539062 10.167969 -19.136719 C 14.472656 -15.90625 19.855469 -13.992188 25.59375 -13.992188 C 39.707031 -13.992188 51.070312 -25.355469 51.070312 -39.46875 C 51.070312 -47.601562 47.242188 -54.898438 41.261719 -59.5625 C 49.15625 -63.75 55.972656 -56.214844 60.519531 -49.636719 L 64.347656 -59.5625 C 60.636719 -62.671875 55.855469 -64.945312 50.949219 -64.945312 C 46.644531 -64.945312 42.816406 -63.390625 39.347656 -60.996094 C 35.402344 -63.507812 30.617188 -64.945312 25.59375 -64.945312 Z M 17.941406 -61.476562 C 25.59375 -64.226562 35.28125 -56.453125 39.589844 -44.371094 C 43.773438 -32.171875 41.023438 -20.09375 33.25 -17.460938 C 25.59375 -14.710938 15.90625 -22.367188 11.722656 -34.566406 C 7.414062 -46.765625 10.167969 -58.84375 17.941406 -61.476562 Z M 17.941406 -61.476562 "/></g></g></g><g fill="#2a2e30" fill-opacity="1"><g transform="translate(213.540825, 317.765475)"><g><path d="M 74.632812 -4.902344 L 73.792969 -5.621094 C 70.804688 -3.230469 67.574219 -5.859375 66.019531 -8.132812 C 60.878906 -15.789062 59.683594 -29.660156 57.050781 -41.859375 C 55.136719 -51.546875 52.984375 -64.945312 40.066406 -64.945312 C 30.738281 -64.945312 23.800781 -57.769531 18.417969 -50.59375 L 18.417969 -89.703125 C 15.191406 -85.039062 7.054688 -81.808594 0 -81.808594 L 0 -80.730469 C 5.144531 -80.972656 7.65625 -77.621094 7.65625 -64.945312 L 7.65625 -16.863281 C 7.65625 -4.1875 5.144531 -0.835938 0 -1.078125 L 0 0 L 26.074219 0 L 26.074219 -1.078125 C 20.929688 -0.835938 18.417969 -4.1875 18.417969 -16.863281 L 18.417969 -46.765625 C 19.972656 -49.035156 22.007812 -51.546875 24.28125 -53.703125 C 32.890625 -62.191406 40.785156 -61.953125 44.371094 -49.277344 C 47.480469 -38.511719 48.199219 -22.722656 52.265625 -11.839844 C 54.660156 -5.382812 58.246094 0 65.902344 0 C 69.371094 0 72.839844 -1.433594 74.632812 -4.902344 Z M 74.632812 -4.902344 "/></g></g></g><g fill="#2a2e30" fill-opacity="1"><g transform="translate(290.922972, 317.765475)"><g><path d="M 0 -64.945312 L 0 -62.792969 L 7.65625 -62.792969 L 7.65625 -14.710938 C 7.65625 -7.535156 10.523438 0 18.898438 0 C 25.476562 0 29.78125 -5.144531 33.367188 -10.167969 L 32.53125 -10.882812 C 25.714844 -2.871094 18.417969 -2.75 18.417969 -14.710938 L 18.417969 -62.792969 L 33.367188 -62.792969 L 33.367188 -64.945312 L 18.417969 -64.945312 L 18.417969 -75.347656 L 17.34375 -75.347656 C 14.113281 -69.128906 6.101562 -64.945312 0 -64.945312 Z M 0 -64.945312 "/></g></g></g><g fill="#2a2e30" fill-opacity="0.4"><g transform="translate(44.088899, 490.301288)"><g><path d="M 0 0 L 44.613281 0 C 58.007812 0 67.097656 -8.492188 67.097656 -22.007812 C 67.097656 -35.402344 58.007812 -44.015625 46.046875 -44.371094 C 55.972656 -48.679688 66.019531 -54.417969 66.019531 -66.5 C 66.019531 -78.21875 54.300781 -81.808594 44.613281 -81.808594 L 0 -81.808594 L 0 -80.730469 C 5.144531 -80.972656 7.65625 -77.503906 7.65625 -64.824219 L 7.65625 -16.863281 C 7.65625 -4.1875 5.144531 -0.835938 0 -1.078125 Z M 19.015625 -28.824219 C 22.484375 -33.011719 28.464844 -37.195312 33.609375 -38.992188 C 43.773438 -42.578125 53.222656 -37.316406 55.257812 -26.3125 C 57.410156 -15.429688 51.308594 -2.152344 37.675781 -2.152344 L 19.015625 -2.152344 Z M 19.015625 -79.65625 L 35.640625 -79.65625 C 44.015625 -79.65625 54.539062 -77.144531 54.539062 -66.976562 C 54.539062 -58.726562 48.917969 -53.222656 42.699219 -48.679688 C 34.925781 -43.058594 25.234375 -38.273438 19.015625 -32.054688 Z M 19.015625 -79.65625 "/></g></g></g><g fill="#2a2e30" fill-opacity="0.4"><g transform="translate(114.892972, 490.301288)"><g><path d="M 68.054688 -4.902344 L 67.214844 -5.621094 C 64.347656 -3.230469 60.996094 -5.859375 59.5625 -8.132812 C 54.417969 -15.789062 53.222656 -29.660156 50.59375 -41.859375 C 47.363281 -57.648438 43.058594 -64.945312 25.355469 -64.945312 C 16.144531 -64.945312 7.175781 -62.910156 0.121094 -59.5625 L 3.945312 -49.515625 C 6.578125 -53.101562 12.199219 -58.726562 17.820312 -61.238281 C 26.789062 -65.304688 34.804688 -60.039062 29.660156 -49.992188 C 23.800781 -38.152344 1.078125 -34.804688 0 -16.984375 C -0.597656 -5.859375 7.414062 0 17.820312 0 C 34.804688 0 40.902344 -13.394531 41.980469 -27.628906 C 42.9375 -22.007812 44.132812 -16.503906 45.808594 -11.839844 C 48.199219 -5.382812 51.667969 0 59.441406 0 C 62.910156 0 66.261719 -1.433594 68.054688 -4.902344 Z M 38.871094 -45.210938 C 40.785156 -37.316406 40.425781 -26.3125 37.675781 -18.539062 C 35.042969 -11.003906 27.628906 -3.828125 18.777344 -5.980469 C 11.960938 -7.65625 10.046875 -13.875 11.242188 -19.734375 C 13.753906 -31.214844 26.671875 -35.402344 31.8125 -44.613281 C 33.726562 -47.960938 34.804688 -52.746094 33.847656 -56.691406 C 36.238281 -53.582031 37.792969 -49.515625 38.871094 -45.210938 Z M 38.871094 -45.210938 "/></g></g></g><g fill="#2a2e30" fill-opacity="0.4"><g transform="translate(185.697044, 490.301288)"><g><path d="M 18.417969 -16.863281 L 18.417969 -89.703125 C 15.191406 -85.039062 7.054688 -81.808594 0 -81.808594 L 0 -80.730469 C 5.144531 -80.972656 7.65625 -77.621094 7.65625 -64.945312 L 7.65625 -16.863281 C 7.65625 -4.1875 5.144531 -0.835938 0 -1.078125 L 0 0 L 26.074219 0 L 26.074219 -1.078125 C 20.929688 -0.835938 18.417969 -4.1875 18.417969 -16.863281 Z M 18.417969 -16.863281 "/></g></g></g><g fill="#2a2e30" fill-opacity="0.4"><g transform="translate(214.760205, 490.301288)"><g><path d="M 18.417969 -16.863281 L 18.417969 -89.703125 C 15.191406 -85.039062 7.054688 -81.808594 0 -81.808594 L 0 -80.730469 C 5.144531 -80.972656 7.65625 -77.621094 7.65625 -64.945312 L 7.65625 -16.863281 C 7.65625 -4.1875 5.144531 -0.835938 0 -1.078125 L 0 0 L 26.074219 0 L 26.074219 -1.078125 C 20.929688 -0.835938 18.417969 -4.1875 18.417969 -16.863281 Z M 18.417969 -16.863281 "/></g></g></g><g fill="#2a2e30" fill-opacity="1"><g transform="translate(38.803068, 485.015455)"><g><path d="M 0 0 L 44.613281 0 C 58.007812 0 67.097656 -8.492188 67.097656 -22.007812 C 67.097656 -35.402344 58.007812 -44.015625 46.046875 -44.371094 C 55.972656 -48.679688 66.019531 -54.417969 66.019531 -66.5 C 66.019531 -78.21875 54.300781 -81.808594 44.613281 -81.808594 L 0 -81.808594 L 0 -80.730469 C 5.144531 -80.972656 7.65625 -77.503906 7.65625 -64.824219 L 7.65625 -16.863281 C 7.65625 -4.1875 5.144531 -0.835938 0 -1.078125 Z M 19.015625 -28.824219 C 22.484375 -33.011719 28.464844 -37.195312 33.609375 -38.992188 C 43.773438 -42.578125 53.222656 -37.316406 55.257812 -26.3125 C 57.410156 -15.429688 51.308594 -2.152344 37.675781 -2.152344 L 19.015625 -2.152344 Z M 19.015625 -79.65625 L 35.640625 -79.65625 C 44.015625 -79.65625 54.539062 -77.144531 54.539062 -66.976562 C 54.539062 -58.726562 48.917969 -53.222656 42.699219 -48.679688 C 34.925781 -43.058594 25.234375 -38.273438 19.015625 -32.054688 Z M 19.015625 -79.65625 "/></g></g></g><g fill="#2a2e30" fill-opacity="1"><g transform="translate(109.60714, 485.015455)"><g><path d="M 68.054688 -4.902344 L 67.214844 -5.621094 C 64.347656 -3.230469 60.996094 -5.859375 59.5625 -8.132812 C 54.417969 -15.789062 53.222656 -29.660156 50.59375 -41.859375 C 47.363281 -57.648438 43.058594 -64.945312 25.355469 -64.945312 C 16.144531 -64.945312 7.175781 -62.910156 0.121094 -59.5625 L 3.945312 -49.515625 C 6.578125 -53.101562 12.199219 -58.726562 17.820312 -61.238281 C 26.789062 -65.304688 34.804688 -60.039062 29.660156 -49.992188 C 23.800781 -38.152344 1.078125 -34.804688 0 -16.984375 C -0.597656 -5.859375 7.414062 0 17.820312 0 C 34.804688 0 40.902344 -13.394531 41.980469 -27.628906 C 42.9375 -22.007812 44.132812 -16.503906 45.808594 -11.839844 C 48.199219 -5.382812 51.667969 0 59.441406 0 C 62.910156 0 66.261719 -1.433594 68.054688 -4.902344 Z M 38.871094 -45.210938 C 40.785156 -37.316406 40.425781 -26.3125 37.675781 -18.539062 C 35.042969 -11.003906 27.628906 -3.828125 18.777344 -5.980469 C 11.960938 -7.65625 10.046875 -13.875 11.242188 -19.734375 C 13.753906 -31.214844 26.671875 -35.402344 31.8125 -44.613281 C 33.726562 -47.960938 34.804688 -52.746094 33.847656 -56.691406 C 36.238281 -53.582031 37.792969 -49.515625 38.871094 -45.210938 Z M 38.871094 -45.210938 "/></g></g></g><g fill="#2a2e30" fill-opacity="1"><g transform="translate(180.411213, 485.015455)"><g><path d="M 18.417969 -16.863281 L 18.417969 -89.703125 C 15.191406 -85.039062 7.054688 -81.808594 0 -81.808594 L 0 -80.730469 C 5.144531 -80.972656 7.65625 -77.621094 7.65625 -64.945312 L 7.65625 -16.863281 C 7.65625 -4.1875 5.144531 -0.835938 0 -1.078125 L 0 0 L 26.074219 0 L 26.074219 -1.078125 C 20.929688 -0.835938 18.417969 -4.1875 18.417969 -16.863281 Z M 18.417969 -16.863281 "/></g></g></g><g fill="#2a2e30" fill-opacity="1"><g transform="translate(209.474373, 485.015455)"><g><path d="M 18.417969 -16.863281 L 18.417969 -89.703125 C 15.191406 -85.039062 7.054688 -81.808594 0 -81.808594 L 0 -80.730469 C 5.144531 -80.972656 7.65625 -77.621094 7.65625 -64.945312 L 7.65625 -16.863281 C 7.65625 -4.1875 5.144531 -0.835938 0 -1.078125 L 0 0 L 26.074219 0 L 26.074219 -1.078125 C 20.929688 -0.835938 18.417969 -4.1875 18.417969 -16.863281 Z M 18.417969 -16.863281 "/></g></g></g></svg>